NotoSansOldSouthArabian-Regular.ufo
<glyph name="He" format="2">
  <advance width="674"/>
  <unicode hex="10A60"/>
  <outline>
    <contour>
      <point x="295" y="0" type="line"/>
      <point x="378" y="0" type="line"/>
      <point x="378" y="498" type="line"/>
      <point x="503" y="509"/>
      <point x="566" y="577"/>
      <point x="566" y="691" type="curve" smooth="yes"/>
      <point x="566" y="859" type="line"/>
      <point x="483" y="859" type="line"/>
      <point x="483" y="694" type="line" smooth="yes"/>
      <point x="483" y="604"/>
      <point x="428" y="572"/>
      <point x="337" y="572" type="curve" smooth="yes"/>
      <point x="246" y="572"/>
      <point x="190" y="604"/>
      <point x="190" y="694" type="curve" smooth="yes"/>
      <point x="190" y="859" type="line"/>
      <point x="107" y="859" type="line"/>
      <point x="107" y="691" type="line" smooth="yes"/>
      <point x="107" y="577"/>
      <point x="171" y="510"/>
      <point x="295" y="498" type="curve"/>
    </contour>
  </outline>
</glyph>
<glyph name="Lamed" format="2">
  <advance width="463"/>
  <unicode hex="10A61"/>
  <outline>
    <contour>
      <point x="273" y="0" type="line"/>
      <point x="356" y="0" type="line"/>
      <point x="356" y="874" type="line"/>
      <point x="49" y="702" type="line"/>
      <point x="85" y="636" type="line"/>
      <point x="273" y="741" type="line"/>
    </contour>
  </outline>
</glyph>
<glyph name="Het" format="2">
  <advance width="674"/>
  <unicode hex="10A62"/>
  <outline>
    <contour>
      <point x="295" y="0" type="line"/>
      <point x="378" y="0" type="line"/>
      <point x="378" y="498" type="line"/>
      <point x="503" y="509"/>
      <point x="566" y="577"/>
      <point x="566" y="691" type="curve" smooth="yes"/>
      <point x="566" y="859" type="line"/>
      <point x="483" y="859" type="line"/>
      <point x="483" y="694" type="line" smooth="yes"/>
      <point x="483" y="618"/>
      <point x="444" y="583"/>
      <point x="378" y="574" type="curve"/>
      <point x="378" y="859" type="line"/>
      <point x="295" y="859" type="line"/>
      <point x="295" y="574" type="line"/>
      <point x="229" y="583"/>
      <point x="190" y="618"/>
      <point x="190" y="694" type="curve" smooth="yes"/>
      <point x="190" y="859" type="line"/>
      <point x="107" y="859" type="line"/>
      <point x="107" y="691" type="line" smooth="yes"/>
      <point x="107" y="577"/>
      <point x="171" y="510"/>
      <point x="295" y="498" type="curve"/>
    </contour>
  </outline>
</glyph>
<glyph name="Mem" format="2">
  <advance width="580"/>
  <unicode hex="10A63"/>
  <outline>
    <contour>
      <point x="473" y="-15" type="line"/>
      <point x="473" y="874" type="line"/>
      <point x="59" y="632" type="line"/>
      <point x="59" y="597" type="line"/>
      <point x="320" y="430" type="line"/>
      <point x="59" y="263" type="line"/>
      <point x="59" y="228" type="line"/>
    </contour>
    <contour>
      <point x="390" y="124" type="line"/>
      <point x="178" y="244" type="line"/>
      <point x="178" y="250" type="line"/>
      <point x="390" y="385" type="line"/>
    </contour>
    <contour>
      <point x="390" y="474" type="line"/>
      <point x="178" y="609" type="line"/>
      <point x="178" y="616" type="line"/>
      <point x="390" y="736" type="line"/>
    </contour>
  </outline>
</glyph>
<glyph name="Qof" format="2">
  <advance width="542"/>
  <unicode hex="10A64"/>
  <outline>
    <contour>
      <point x="229" y="0" type="line"/>
      <point x="313" y="0" type="line"/>
      <point x="313" y="283" type="line"/>
      <point x="381" y="301"/>
      <point x="435" y="362"/>
      <point x="435" y="435" type="curve" smooth="yes"/>
      <point x="435" y="508"/>
      <point x="381" y="570"/>
      <point x="313" y="588" type="curve"/>
      <point x="313" y="859" type="line"/>
      <point x="229" y="859" type="line"/>
      <point x="229" y="588" type="line"/>
      <point x="161" y="570"/>
      <point x="107" y="508"/>
      <point x="107" y="435" type="curve" smooth="yes"/>
      <point x="107" y="362"/>
      <point x="161" y="301"/>
      <point x="229" y="283" type="curve"/>
    </contour>
    <contour>
      <point x="271" y="353" type="curve" smooth="yes"/>
      <point x="226" y="353"/>
      <point x="188" y="390"/>
      <point x="188" y="436" type="curve" smooth="yes"/>
      <point x="188" y="481"/>
      <point x="226" y="518"/>
      <point x="271" y="518" type="curve" smooth="yes"/>
      <point x="317" y="518"/>
      <point x="354" y="481"/>
      <point x="354" y="436" type="curve" smooth="yes"/>
      <point x="354" y="390"/>
      <point x="317" y="353"/>
    </contour>
  </outline>
</glyph>
<glyph name="Waw" format="2">
  <advance width="627"/>
  <unicode hex="10A65"/>
  <outline>
    <contour>
      <point x="313" y="222" type="curve" smooth="yes"/>
      <point x="460" y="222"/>
      <point x="549" y="313"/>
      <point x="549" y="426" type="curve" smooth="yes"/>
      <point x="549" y="540"/>
      <point x="460" y="633"/>
      <point x="313" y="633" type="curve" smooth="yes"/>
      <point x="166" y="633"/>
      <point x="78" y="540"/>
      <point x="78" y="426" type="curve" smooth="yes"/>
      <point x="78" y="313"/>
      <point x="166" y="222"/>
    </contour>
    <contour>
      <point x="272" y="299" type="line"/>
      <point x="195" y="313"/>
      <point x="159" y="366"/>
      <point x="159" y="427" type="curve" smooth="yes"/>
      <point x="159" y="488"/>
      <point x="195" y="542"/>
      <point x="272" y="555" type="curve"/>
    </contour>
    <contour>
      <point x="355" y="299" type="curve"/>
      <point x="355" y="555" type="line"/>
      <point x="433" y="541"/>
      <point x="468" y="488"/>
      <point x="468" y="427" type="curve" smooth="yes"/>
      <point x="468" y="366"/>
      <point x="433" y="313"/>
    </contour>
  </outline>
</glyph>
<glyph name="Shin" format="2">
  <advance width="478"/>
  <unicode hex="10A66"/>
  <outline>
    <contour>
      <point x="78" y="-15" type="line"/>
      <point x="399" y="224" type="line"/>
      <point x="399" y="253" type="line"/>
      <point x="189" y="430" type="line"/>
      <point x="399" y="606" type="line"/>
      <point x="399" y="635" type="line"/>
      <point x="78" y="874" type="line"/>
      <point x="78" y="776" type="line"/>
      <point x="282" y="624" type="line"/>
      <point x="282" y="617" type="line"/>
      <point x="78" y="444" type="line"/>
      <point x="78" y="415" type="line"/>
      <point x="282" y="242" type="line"/>
      <point x="282" y="236" type="line"/>
      <point x="78" y="83" type="line"/>
    </contour>
  </outline>
</glyph>
<glyph name="Resh" format="2">
  <advance width="501"/>
  <unicode hex="10A67"/>
  <outline>
    <contour>
      <point x="78" y="-15" type="line"/>
      <point x="292" y="31"/>
      <point x="394" y="244"/>
      <point x="394" y="428" type="curve" smooth="yes"/>
      <point x="394" y="636"/>
      <point x="278" y="829"/>
      <point x="78" y="874" type="curve"/>
      <point x="78" y="793" type="line"/>
      <point x="227" y="751"/>
      <point x="308" y="588"/>
      <point x="308" y="428" type="curve" smooth="yes"/>
      <point x="308" y="286"/>
      <point x="240" y="118"/>
      <point x="78" y="63" type="curve"/>
    </contour>
  </outline>
</glyph>
<glyph name="Beth" format="2">
  <advance width="566"/>
  <unicode hex="10A68"/>
  <outline>
    <contour>
      <point x="107" y="0" type="line"/>
      <point x="190" y="0" type="line"/>
      <point x="190" y="786" type="line"/>
      <point x="376" y="786" type="line"/>
      <point x="376" y="0" type="line"/>
      <point x="459" y="0" type="line"/>
      <point x="459" y="859" type="line"/>
      <point x="107" y="859" type="line"/>
    </contour>
  </outline>
</glyph>
<glyph name="Taw" format="2">
  <advance width="645"/>
  <unicode hex="10A69"/>
  <outline>
    <contour>
      <point x="78" y="0" type="line"/>
      <point x="169" y="0" type="line"/>
      <point x="322" y="331" type="line"/>
      <point x="476" y="0" type="line"/>
      <point x="566" y="0" type="line"/>
      <point x="368" y="429" type="line"/>
      <point x="566" y="859" type="line"/>
      <point x="476" y="859" type="line"/>
      <point x="322" y="527" type="line"/>
      <point x="168" y="859" type="line"/>
      <point x="78" y="859" type="line"/>
      <point x="277" y="429" type="line"/>
    </contour>
  </outline>
</glyph>
<glyph name="Sat" format="2">
  <advance width="566"/>
  <unicode hex="10A6A"/>
  <outline>
    <contour>
      <point x="107" y="0" type="line"/>
      <point x="190" y="0" type="line"/>
      <point x="190" y="415" type="line"/>
      <point x="376" y="415" type="line"/>
      <point x="376" y="0" type="line"/>
      <point x="459" y="0" type="line"/>
      <point x="459" y="488" type="line"/>
      <point x="325" y="488" type="line"/>
      <point x="325" y="859" type="line"/>
      <point x="242" y="859" type="line"/>
      <point x="242" y="488" type="line"/>
      <point x="107" y="488" type="line"/>
    </contour>
  </outline>
</glyph>
<glyph name="Kaph" format="2">
  <advance width="566"/>
  <unicode hex="10A6B"/>
  <outline>
    <contour>
      <point x="107" y="0" type="line"/>
      <point x="190" y="0" type="line"/>
      <point x="190" y="415" type="line"/>
      <point x="376" y="415" type="line"/>
      <point x="376" y="0" type="line"/>
      <point x="459" y="0" type="line"/>
      <point x="459" y="488" type="line"/>
      <point x="188" y="488" type="line"/>
      <point x="314" y="859" type="line"/>
      <point x="234" y="859" type="line"/>
      <point x="107" y="488" type="line"/>
    </contour>
  </outline>
</glyph>
<glyph name="Nun" format="2">
  <advance width="498"/>
  <unicode hex="10A6C"/>
  <outline>
    <contour>
      <point x="308" y="0" type="line"/>
      <point x="391" y="0" type="line"/>
      <point x="391" y="508" type="line"/>
      <point x="190" y="508" type="line"/>
      <point x="190" y="859" type="line"/>
      <point x="107" y="859" type="line"/>
      <point x="107" y="435" type="line"/>
      <point x="308" y="435" type="line"/>
    </contour>
  </outline>
</glyph>
<glyph name="Sadhe" format="2">
  <advance width="674"/>
  <unicode hex="10A6E"/>
  <outline>
    <contour>
      <point x="107" y="0" type="line"/>
      <point x="190" y="0" type="line"/>
      <point x="190" y="165" type="line" smooth="yes"/>
      <point x="190" y="241"/>
      <point x="229" y="275"/>
      <point x="295" y="285" type="curve"/>
      <point x="295" y="0" type="line"/>
      <point x="378" y="0" type="line"/>
      <point x="378" y="285" type="line"/>
      <point x="444" y="275"/>
      <point x="483" y="241"/>
      <point x="483" y="165" type="curve" smooth="yes"/>
      <point x="483" y="0" type="line"/>
      <point x="566" y="0" type="line"/>
      <point x="566" y="168" type="line" smooth="yes"/>
      <point x="566" y="283"/>
      <point x="503" y="350"/>
      <point x="378" y="361" type="curve"/>
      <point x="378" y="563" type="line"/>
      <point x="447" y="581"/>
      <point x="500" y="643"/>
      <point x="500" y="715" type="curve" smooth="yes"/>
      <point x="500" y="803"/>
      <point x="424" y="874"/>
      <point x="337" y="874" type="curve" smooth="yes"/>
      <point x="250" y="874"/>
      <point x="173" y="803"/>
      <point x="173" y="715" type="curve" smooth="yes"/>
      <point x="173" y="643"/>
      <point x="227" y="581"/>
      <point x="295" y="563" type="curve"/>
      <point x="295" y="361" type="line"/>
      <point x="171" y="350"/>
      <point x="107" y="283"/>
      <point x="107" y="168" type="curve" smooth="yes"/>
    </contour>
    <contour>
      <point x="337" y="633" type="curve" smooth="yes"/>
      <point x="292" y="633"/>
      <point x="254" y="670"/>
      <point x="254" y="716" type="curve" smooth="yes"/>
      <point x="254" y="761"/>
      <point x="292" y="798"/>
      <point x="337" y="798" type="curve" smooth="yes"/>
      <point x="383" y="798"/>
      <point x="420" y="761"/>
      <point x="420" y="716" type="curve" smooth="yes"/>
      <point x="420" y="670"/>
      <point x="383" y="633"/>
    </contour>
  </outline>
</glyph>
<glyph name="Samekh" format="2">
  <advance width="544"/>
  <unicode hex="10A6F"/>
  <outline>
    <contour>
      <point x="78" y="0" type="line"/>
      <point x="173" y="0" type="line"/>
      <point x="272" y="145" type="line"/>
      <point x="371" y="0" type="line"/>
      <point x="466" y="0" type="line"/>
      <point x="320" y="215" type="line"/>
      <point x="466" y="430" type="line"/>
      <point x="320" y="645" type="line"/>
      <point x="466" y="860" type="line"/>
      <point x="371" y="860" type="line"/>
      <point x="272" y="714" type="line"/>
      <point x="173" y="860" type="line"/>
      <point x="78" y="860" type="line"/>
      <point x="225" y="645" type="line"/>
      <point x="78" y="430" type="line"/>
      <point x="225" y="215" type="line"/>
    </contour>
    <contour>
      <point x="272" y="285" type="line"/>
      <point x="173" y="430" type="line"/>
      <point x="272" y="575" type="line"/>
      <point x="371" y="430" type="line"/>
    </contour>
  </outline>
</glyph>
<glyph name="Fe" format="2">
  <advance width="626"/>
  <unicode hex="10A70"/>
  <outline>
    <contour>
      <point x="297" y="0" type="line"/>
      <point x="329" y="0" type="line"/>
      <point x="548" y="430" type="line"/>
      <point x="329" y="859" type="line"/>
      <point x="297" y="859" type="line"/>
      <point x="78" y="430" type="line"/>
    </contour>
    <contour>
      <point x="313" y="144" type="line"/>
      <point x="173" y="430" type="line"/>
      <point x="313" y="716" type="line"/>
      <point x="454" y="430" type="line"/>
    </contour>
  </outline>
</glyph>
<glyph name="Aleph" format="2">
  <advance width="566"/>
  <unicode hex="10A71"/>
  <outline>
    <contour>
      <point x="107" y="0" type="line"/>
      <point x="190" y="0" type="line"/>
      <point x="190" y="415" type="line"/>
      <point x="376" y="415" type="line"/>
      <point x="376" y="0" type="line"/>
      <point x="459" y="0" type="line"/>
      <point x="459" y="488" type="line"/>
      <point x="325" y="488" type="line"/>
      <point x="325" y="695" type="line"/>
      <point x="190" y="695" type="line"/>
      <point x="190" y="859" type="line"/>
      <point x="107" y="859" type="line"/>
      <point x="107" y="622" type="line"/>
      <point x="242" y="622" type="line"/>
      <point x="242" y="488" type="line"/>
      <point x="107" y="488" type="line"/>
    </contour>
  </outline>
</glyph>
<glyph name="Ain" format="2">
  <advance width="483"/>
  <unicode hex="10A72"/>
  <outline>
    <contour>
      <point x="242" y="272" type="curve" smooth="yes"/>
      <point x="329" y="272"/>
      <point x="405" y="343"/>
      <point x="405" y="430" type="curve" smooth="yes"/>
      <point x="405" y="518"/>
      <point x="329" y="589"/>
      <point x="242" y="589" type="curve" smooth="yes"/>
      <point x="155" y="589"/>
      <point x="78" y="518"/>
      <point x="78" y="430" type="curve" smooth="yes"/>
      <point x="78" y="343"/>
      <point x="155" y="272"/>
    </contour>
    <contour>
      <point x="242" y="348" type="curve" smooth="yes"/>
      <point x="197" y="348"/>
      <point x="159" y="385"/>
      <point x="159" y="431" type="curve" smooth="yes"/>
      <point x="159" y="476"/>
      <point x="197" y="513"/>
      <point x="242" y="513" type="curve" smooth="yes"/>
      <point x="288" y="513"/>
      <point x="325" y="476"/>
      <point x="325" y="431" type="curve" smooth="yes"/>
      <point x="325" y="385"/>
      <point x="288" y="348"/>
    </contour>
  </outline>
</glyph>
<glyph name="Gimel" format="2">
  <advance width="481"/>
  <unicode hex="10A74"/>
  <outline>
    <contour>
      <point x="291" y="0" type="line"/>
      <point x="374" y="0" type="line"/>
      <point x="374" y="859" type="line"/>
      <point x="59" y="859" type="line"/>
      <point x="59" y="786" type="line"/>
      <point x="291" y="786" type="line"/>
    </contour>
  </outline>
</glyph>
<glyph name="Daleth" format="2">
  <advance width="478"/>
  <unicode hex="10A75"/>
  <outline>
    <contour>
      <point x="287" y="0" type="line"/>
      <point x="370" y="0" type="line"/>
      <point x="370" y="859" type="line"/>
      <point x="287" y="859" type="line"/>
      <point x="287" y="542" type="line"/>
      <point x="85" y="682" type="line"/>
      <point x="59" y="682" type="line"/>
      <point x="59" y="202" type="line"/>
      <point x="85" y="202" type="line"/>
      <point x="287" y="341" type="line"/>
    </contour>
    <contour>
      <point x="142" y="334" type="line"/>
      <point x="142" y="549" type="line"/>
      <point x="287" y="446" type="line"/>
      <point x="287" y="439" type="line"/>
    </contour>
  </outline>
</glyph>
<glyph name="Ghayn" format="2">
  <advance width="678"/>
  <unicode hex="10A76"/>
  <outline>
    <contour>
      <point x="219" y="0" type="line"/>
      <point x="302" y="0" type="line"/>
      <point x="302" y="786" type="line"/>
      <point x="488" y="786" type="line"/>
      <point x="488" y="0" type="line"/>
      <point x="571" y="0" type="line"/>
      <point x="571" y="859" type="line"/>
      <point x="219" y="859" type="line"/>
      <point x="49" y="594" type="line"/>
      <point x="119" y="556" type="line"/>
      <point x="219" y="714" type="line"/>
    </contour>
  </outline>
</glyph>
<glyph name="Teth" format="2">
  <advance width="688"/>
  <unicode hex="10A77"/>
  <outline>
    <contour>
      <point x="107" y="0" type="line"/>
      <point x="581" y="0" type="line"/>
      <point x="581" y="859" type="line"/>
      <point x="107" y="859" type="line"/>
    </contour>
    <contour>
      <point x="190" y="74" type="line"/>
      <point x="190" y="786" type="line"/>
      <point x="303" y="786" type="line"/>
      <point x="303" y="74" type="line"/>
    </contour>
    <contour>
      <point x="386" y="74" type="line"/>
      <point x="386" y="786" type="line"/>
      <point x="498" y="786" type="line"/>
      <point x="498" y="74" type="line"/>
    </contour>
  </outline>
</glyph>
<glyph name="Zayin" format="2">
  <advance width="535"/>
  <unicode hex="10A78"/>
  <outline>
    <contour>
      <point x="78" y="0" type="line"/>
      <point x="457" y="0" type="line"/>
      <point x="305" y="434" type="line"/>
      <point x="457" y="860" type="line"/>
      <point x="78" y="860" type="line"/>
      <point x="230" y="434" type="line"/>
    </contour>
    <contour>
      <point x="191" y="74" type="line"/>
      <point x="268" y="338" type="line"/>
      <point x="343" y="74" type="line"/>
    </contour>
    <contour>
      <point x="268" y="550" type="line"/>
      <point x="193" y="786" type="line"/>
      <point x="342" y="786" type="line"/>
    </contour>
  </outline>
</glyph>
<glyph name="Dhaleth" format="2">
  <advance width="566"/>
  <unicode hex="10A79"/>
  <outline>
    <contour>
      <point x="107" y="0" type="line"/>
      <point x="190" y="0" type="line"/>
      <point x="190" y="259" type="line"/>
      <point x="376" y="259" type="line"/>
      <point x="376" y="0" type="line"/>
      <point x="459" y="0" type="line"/>
      <point x="459" y="859" type="line"/>
      <point x="376" y="859" type="line"/>
      <point x="376" y="625" type="line"/>
      <point x="190" y="625" type="line"/>
      <point x="190" y="859" type="line"/>
      <point x="107" y="859" type="line"/>
    </contour>
    <contour>
      <point x="190" y="332" type="line"/>
      <point x="190" y="552" type="line"/>
      <point x="376" y="552" type="line"/>
      <point x="376" y="332" type="line"/>
    </contour>
  </outline>
</glyph>
<glyph name="Yeh" format="2">
  <advance width="542"/>
  <unicode hex="10A7A"/>
  <outline>
    <contour>
      <point x="229" y="0" type="line"/>
      <point x="313" y="0" type="line"/>
      <point x="313" y="563" type="line"/>
      <point x="381" y="581"/>
      <point x="435" y="643"/>
      <point x="435" y="715" type="curve" smooth="yes"/>
      <point x="435" y="803"/>
      <point x="358" y="874"/>
      <point x="271" y="874" type="curve" smooth="yes"/>
      <point x="184" y="874"/>
      <point x="107" y="803"/>
      <point x="107" y="715" type="curve" smooth="yes"/>
      <point x="107" y="643"/>
      <point x="161" y="581"/>
      <point x="229" y="563" type="curve"/>
    </contour>
    <contour>
      <point x="271" y="633" type="curve" smooth="yes"/>
      <point x="226" y="633"/>
      <point x="188" y="670"/>
      <point x="188" y="716" type="curve" smooth="yes"/>
      <point x="188" y="761"/>
      <point x="226" y="798"/>
      <point x="271" y="798" type="curve" smooth="yes"/>
      <point x="317" y="798"/>
      <point x="354" y="761"/>
      <point x="354" y="716" type="curve" smooth="yes"/>
      <point x="354" y="670"/>
      <point x="317" y="633"/>
    </contour>
  </outline>
</glyph>
<glyph name="Thaw" format="2">
  <advance width="542"/>
  <unicode hex="10A7B"/>
  <outline>
    <contour>
      <point x="271" y="-15" type="curve" smooth="yes"/>
      <point x="358" y="-15"/>
      <point x="435" y="56"/>
      <point x="435" y="143" type="curve" smooth="yes"/>
      <point x="435" y="216"/>
      <point x="381" y="278"/>
      <point x="313" y="296" type="curve"/>
      <point x="313" y="563" type="line"/>
      <point x="381" y="581"/>
      <point x="435" y="643"/>
      <point x="435" y="715" type="curve" smooth="yes"/>
      <point x="435" y="803"/>
      <point x="358" y="874"/>
      <point x="271" y="874" type="curve" smooth="yes"/>
      <point x="184" y="874"/>
      <point x="107" y="803"/>
      <point x="107" y="715" type="curve" smooth="yes"/>
      <point x="107" y="643"/>
      <point x="161" y="581"/>
      <point x="229" y="563" type="curve"/>
      <point x="229" y="296" type="line"/>
      <point x="161" y="278"/>
      <point x="107" y="216"/>
      <point x="107" y="143" type="curve" smooth="yes"/>
      <point x="107" y="56"/>
      <point x="184" y="-15"/>
    </contour>
    <contour>
      <point x="271" y="61" type="curve" smooth="yes"/>
      <point x="226" y="61"/>
      <point x="188" y="98"/>
      <point x="188" y="144" type="curve" smooth="yes"/>
      <point x="188" y="189"/>
      <point x="226" y="226"/>
      <point x="271" y="226" type="curve" smooth="yes"/>
      <point x="317" y="226"/>
      <point x="354" y="189"/>
      <point x="354" y="144" type="curve" smooth="yes"/>
      <point x="354" y="98"/>
      <point x="317" y="61"/>
    </contour>
    <contour>
      <point x="271" y="633" type="curve" smooth="yes"/>
      <point x="226" y="633"/>
      <point x="188" y="670"/>
      <point x="188" y="716" type="curve" smooth="yes"/>
      <point x="188" y="761"/>
      <point x="226" y="798"/>
      <point x="271" y="798" type="curve" smooth="yes"/>
      <point x="317" y="798"/>
      <point x="354" y="761"/>
      <point x="354" y="716" type="curve" smooth="yes"/>
      <point x="354" y="670"/>
      <point x="317" y="633"/>
    </contour>
  </outline>
</glyph>
<glyph name="Theth" format="2">
  <advance width="640"/>
  <unicode hex="10A7C"/>
  <outline>
    <contour>
      <point x="181" y="0" type="line"/>
      <point x="264" y="0" type="line"/>
      <point x="264" y="386" type="line"/>
      <point x="449" y="386" type="line"/>
      <point x="449" y="0" type="line"/>
      <point x="532" y="0" type="line"/>
      <point x="532" y="459" type="line"/>
      <point x="264" y="459" type="line"/>
      <point x="264" y="563" type="line"/>
      <point x="332" y="581"/>
      <point x="386" y="643"/>
      <point x="386" y="715" type="curve" smooth="yes"/>
      <point x="386" y="803"/>
      <point x="310" y="874"/>
      <point x="222" y="874" type="curve" smooth="yes"/>
      <point x="135" y="874"/>
      <point x="59" y="803"/>
      <point x="59" y="715" type="curve" smooth="yes"/>
      <point x="59" y="643"/>
      <point x="112" y="581"/>
      <point x="181" y="563" type="curve"/>
    </contour>
    <contour>
      <point x="222" y="633" type="curve" smooth="yes"/>
      <point x="177" y="633"/>
      <point x="139" y="670"/>
      <point x="139" y="716" type="curve" smooth="yes"/>
      <point x="139" y="761"/>
      <point x="177" y="798"/>
      <point x="222" y="798" type="curve" smooth="yes"/>
      <point x="269" y="798"/>
      <point x="305" y="761"/>
      <point x="305" y="716" type="curve" smooth="yes"/>
      <point x="305" y="670"/>
      <point x="269" y="633"/>
    </contour>
  </outline>
</glyph>
<glyph name="NumberOne" format="2">
  <advance width="376"/>
  <unicode hex="10A7D"/>
  <outline>
    <contour>
      <point x="146" y="0" type="line"/>
      <point x="229" y="0" type="line"/>
      <point x="229" y="859" type="line"/>
      <point x="146" y="859" type="line"/>
    </contour>
  </outline>
</glyph>
<glyph name="Number" format="2">
  <advance width="580"/>
  <unicode hex="10A7E"/>
  <outline>
    <contour>
      <point x="390" y="0" type="line"/>
      <point x="473" y="0" type="line"/>
      <point x="473" y="874" type="line"/>
      <point x="59" y="632" type="line"/>
      <point x="59" y="597" type="line"/>
      <point x="390" y="384" type="line"/>
    </contour>
    <contour>
      <point x="390" y="475" type="line"/>
      <point x="178" y="609" type="line"/>
      <point x="178" y="616" type="line"/>
      <point x="390" y="736" type="line"/>
    </contour>
  </outline>
</glyph>
<glyph name="NumberMarker" format="2">
  <advance width="566"/>
  <unicode hex="10A7F"/>
  <outline>
    <contour>
      <point x="107" y="0" type="line"/>
      <point x="459" y="0" type="line"/>
      <point x="459" y="859" type="line"/>
      <point x="107" y="859" type="line"/>
    </contour>
    <contour>
      <point x="190" y="73" type="line"/>
      <point x="190" y="197" type="line"/>
      <point x="376" y="197" type="line"/>
      <point x="376" y="73" type="line"/>
    </contour>
    <contour>
      <point x="190" y="271" type="line"/>
      <point x="190" y="394" type="line"/>
      <point x="376" y="394" type="line"/>
      <point x="376" y="271" type="line"/>
    </contour>
    <contour>
      <point x="190" y="467" type="line"/>
      <point x="190" y="590" type="line"/>
      <point x="376" y="590" type="line"/>
      <point x="376" y="467" type="line"/>
    </contour>
    <contour>
      <point x="190" y="663" type="line"/>
      <point x="190" y="786" type="line"/>
      <point x="376" y="786" type="line"/>
      <point x="376" y="663" type="line"/>
    </contour>
  </outline>
</glyph>
